<svg xmlns="http://www.w3.org/2000/svg" xmlns:xlink="http://www.w3.org/1999/xlink" viewBox="0 0 3012.34 1881.15"><defs><style>.cls-1{isolation:isolate;}.cls-2{fill:#f1f2f2;}.cls-3,.cls-6,.cls-7{mix-blend-mode:multiply;}.cls-3{fill:url(#linear-gradient);}.cls-4{fill:url(#linear-gradient-2);}.cls-5{fill:url(#linear-gradient-3);}.cls-6{fill:url(#linear-gradient-4);}.cls-7{opacity:0.44;fill:url(#linear-gradient-5);}</style><linearGradient id="linear-gradient" x1="1678.23" y1="-431.95" x2="1007.09" y2="4860.05" gradientUnits="userSpaceOnUse"><stop offset="0" stop-color="#fff"/><stop offset="0.99" stop-color="#e6e7e8"/></linearGradient><linearGradient id="linear-gradient-2" x1="245.7" y1="-175.99" x2="2186.1" y2="2036.42" xlink:href="#linear-gradient"/><linearGradient id="linear-gradient-3" x1="1366.27" y1="-37.16" x2="1757.13" y2="2678.26" xlink:href="#linear-gradient"/><linearGradient id="linear-gradient-4" x1="619.74" y1="2124.99" x2="3222.64" y2="1358.54" xlink:href="#linear-gradient"/><linearGradient id="linear-gradient-5" x1="2127.02" y1="887.64" x2="3012.34" y2="887.64" xlink:href="#linear-gradient"/></defs><title>club1Asset 2sofian 2</title><g class="cls-1"><g id="Layer_2" data-name="Layer 2"><path class="cls-2" d="M2497.8,0s-2.57.3-7.42.9H0V1876.32H1.55c0,1.6.08,3.21.13,4.83H3012.34V0Z"/><rect class="cls-3" y="0.9" width="3008.83" height="1875.42"/><path class="cls-4" d="M1538.51.9s-829,184-596.68,642.29C1094.4,944.15,1057.67,1401.86,0,841V.9Z"/><path class="cls-5" d="M2497.8,0S945.29,178.71,1466.32,822.34c174.86,216-45.13,580.22-401.14,596.57C718.09,1434.85-17.15,1286.21,1.68,1881.15H3012.34V0Z"/><path class="cls-6" d="M1317,1881.15s-113-445.76,384.67-461.54c678.93-21.53,1136.49,461.54,1136.49,461.54Z"/><path class="cls-7" d="M3012.34,385.82S2556.9,305.37,2297.47,542s-161.91,562.72-99.51,639c95.31,116.56,200.2,259.18,814.38,212.61Z"/></g></g></svg>