<svg xmlns="http://www.w3.org/2000/svg" xmlns:xlink="http://www.w3.org/1999/xlink" viewBox="0 0 1568.86 1425.52"><defs><style>.cls-1{isolation:isolate;}.cls-2,.cls-4{fill:#33226c;}.cls-16,.cls-3{fill:#ffb300;}.cls-4{opacity:0.51;}.cls-10,.cls-18,.cls-4{mix-blend-mode:color-dodge;}.cls-5{fill:#471f5e;}.cls-6,.cls-7{fill:#31236c;}.cls-7{opacity:0.3;}.cls-13,.cls-16,.cls-21,.cls-25,.cls-27,.cls-29,.cls-33,.cls-7{mix-blend-mode:multiply;}.cls-25,.cls-8{fill:#fbb1a6;}.cls-10,.cls-9{fill:#f1f2f2;}.cls-10{opacity:0.46;}.cls-11{fill:#d1d3d4;}.cls-12{fill:url(#linear-gradient);}.cls-13{opacity:0.19;fill:url(#linear-gradient-2);}.cls-14{fill:url(#linear-gradient-3);}.cls-15{fill:url(#linear-gradient-4);}.cls-16{opacity:0.52;}.cls-17{fill:url(#linear-gradient-5);}.cls-18,.cls-33{opacity:0.1;}.cls-18{fill:url(#linear-gradient-6);}.cls-19{fill:url(#linear-gradient-7);}.cls-20{fill:url(#linear-gradient-8);}.cls-21{opacity:0.44;fill:url(#linear-gradient-9);}.cls-22{fill:url(#linear-gradient-10);}.cls-23{fill:url(#linear-gradient-11);}.cls-24{fill:url(#linear-gradient-12);}.cls-25{opacity:0.26;}.cls-26{fill:url(#linear-gradient-13);}.cls-27,.cls-29{opacity:0.33;}.cls-27{fill:url(#linear-gradient-14);}.cls-28{fill:url(#linear-gradient-15);}.cls-29{fill:url(#linear-gradient-16);}.cls-30{fill:#362478;}.cls-31{fill:url(#linear-gradient-17);}.cls-32{fill:url(#linear-gradient-18);}.cls-34{fill:url(#linear-gradient-19);}.cls-35{fill:url(#linear-gradient-20);}</style><linearGradient id="linear-gradient" x1="74.73" y1="238.14" x2="175.36" y2="624.78" gradientUnits="userSpaceOnUse"><stop offset="0" stop-color="#6ad0fb"/><stop offset="0.23" stop-color="#6acdfa"/><stop offset="0.39" stop-color="#69c4f5"/><stop offset="0.53" stop-color="#69b4ee"/><stop offset="0.65" stop-color="#689ee4"/><stop offset="0.77" stop-color="#6682d6"/><stop offset="0.88" stop-color="#6560c6"/><stop offset="0.99" stop-color="#6337b3"/><stop offset="0.99" stop-color="#6336b2"/></linearGradient><linearGradient id="linear-gradient-2" x1="80.89" y1="236.53" x2="181.52" y2="623.18" xlink:href="#linear-gradient"/><linearGradient id="linear-gradient-3" x1="165.67" y1="193.51" x2="173.62" y2="609.81" xlink:href="#linear-gradient"/><linearGradient id="linear-gradient-4" x1="238.85" y1="334.47" x2="158.35" y2="563.28" xlink:href="#linear-gradient"/><linearGradient id="linear-gradient-5" x1="909.39" y1="-189.34" x2="998.71" y2="591.43" xlink:href="#linear-gradient"/><linearGradient id="linear-gradient-6" x1="585.16" y1="190.02" x2="1252.81" y2="190.02" xlink:href="#linear-gradient"/><linearGradient id="linear-gradient-7" x1="421.84" y1="267.31" x2="710.04" y2="150.3" gradientUnits="userSpaceOnUse"><stop offset="0" stop-color="#43295d"/><stop offset="1" stop-color="#774b88"/></linearGradient><linearGradient id="linear-gradient-8" x1="899.18" y1="447.6" x2="1059.12" y2="818.78" gradientUnits="userSpaceOnUse"><stop offset="0" stop-color="#965bf1"/><stop offset="0.99" stop-color="#bb68fa"/></linearGradient><linearGradient id="linear-gradient-9" x1="901.65" y1="455.88" x2="1056.16" y2="814.47" xlink:href="#linear-gradient-8"/><linearGradient id="linear-gradient-10" x1="774.72" y1="1402.87" x2="734.86" y2="932.3" xlink:href="#linear-gradient-7"/><linearGradient id="linear-gradient-11" x1="525.22" y1="1424" x2="485.36" y2="953.43" xlink:href="#linear-gradient-7"/><linearGradient id="linear-gradient-12" x1="268.64" y1="1380.81" x2="448.64" y2="905.09" xlink:href="#linear-gradient-7"/><linearGradient id="linear-gradient-13" x1="286.12" y1="441.63" x2="617.84" y2="635.45" gradientUnits="userSpaceOnUse"><stop offset="0" stop-color="#9a72f6"/><stop offset="1" stop-color="#724ce4"/></linearGradient><linearGradient id="linear-gradient-14" x1="324.02" y1="532.56" x2="442.69" y2="532.56" xlink:href="#linear-gradient-13"/><linearGradient id="linear-gradient-15" x1="330.33" y1="568.47" x2="1154.1" y2="710.72" xlink:href="#linear-gradient-13"/><linearGradient id="linear-gradient-16" x1="458.2" y1="513.09" x2="1331.6" y2="1047.39" xlink:href="#linear-gradient-13"/><linearGradient id="linear-gradient-17" x1="346.35" y1="772.46" x2="775.33" y2="772.46" gradientUnits="userSpaceOnUse"><stop offset="0" stop-color="#533aa9"/><stop offset="1" stop-color="#2f2070"/></linearGradient><linearGradient id="linear-gradient-18" x1="696.54" y1="1494.67" x2="588.54" y2="860.17" xlink:href="#linear-gradient-7"/><linearGradient id="linear-gradient-19" x1="605.96" y1="91.63" x2="625.15" y2="286.72" xlink:href="#linear-gradient-7"/><linearGradient id="linear-gradient-20" x1="513.39" y1="96.92" x2="533.24" y2="298.73" xlink:href="#linear-gradient-7"/></defs><title>club1Asset 2sofian 2</title><g class="cls-1"><g id="Layer_2" data-name="Layer 2"><rect class="cls-2" x="1251.95" y="625.92" width="19.5" height="689.08"/><rect class="cls-2" x="300.13" y="625.92" width="19.5" height="689.08"/><path class="cls-3" d="M779,1231.94s-26.55,70-9.65,79,174.37,0,174.37,0,13.88-27.35-28.36-37.51-61.54-35.5-61.54-35.5Z"/><path class="cls-3" d="M504.82,1231.94s-26.55,70-9.65,79,174.37,0,174.37,0,13.88-27.35-28.36-37.51-61.54-35.5-61.54-35.5Z"/><rect class="cls-2" y="623.54" width="1568.86" height="17.34" rx="5.44" ry="5.44"/><path class="cls-4" d="M1563.41,623.54H5.44A5.44,5.44,0,0,0,0,629v4.82a5.45,5.45,0,0,1,5.44-5.44h1558a5.45,5.45,0,0,1,5.45,5.44V629A5.44,5.44,0,0,0,1563.41,623.54Z"/><rect class="cls-2" x="1500.07" y="625.92" width="19.5" height="689.08"/><path class="cls-5" d="M1026.83,415.73s48,80.35,48,131.75c0,29.17-34,61.38-34,61.38l-190.62-.27S961.54,577.41,933.52,509s-45.37-93.3-45.37-93.3Z"/><path class="cls-6" d="M674.67,752.25s209.45,14.52,285.29,81c23.83,36.12,36.83,39-99,405.94,0,0-53.45,26-89.56-7.22,41.89-148.8,62.12-296.15,62.12-296.15s-158.91,17.34-196.47-2.89S608.26,791.18,674.67,752.25Z"/><path class="cls-6" d="M400.62,752.25s209.45,14.52,285.29,81c23.83,36.12,36.83,39-99,405.94,0,0-53.45,26-89.56-7.22,41.89-148.8,62.12-296.15,62.12-296.15s-112.31,5.35-150.31-14C341.27,887.08,334.21,791.18,400.62,752.25Z"/><path class="cls-7" d="M400.62,752.25s209.45,14.52,285.29,81c23.83,36.12,36.83,39-99,405.94,0,0-53.45,26-89.56-7.22,41.89-148.8,62.12-296.15,62.12-296.15s-112.31,5.35-150.31-14C341.27,887.08,334.21,791.18,400.62,752.25Z"/><rect class="cls-2" x="52.01" y="625.92" width="19.5" height="689.08"/><path class="cls-8" d="M934.71,543.51s39.94-14.74,59.91-2.82c22.39,13.36,32.5,31.44,37.92,60.67,4.34,23.4-27.08-15.17-33.59-18.05s-20.2,25.28-39,18.05-28.18-53.88-28.18-53.88"/><polygon class="cls-9" points="1516.01 430.3 1353.32 430.3 1271.45 623.15 1434.15 623.15 1516.01 430.3"/><path class="cls-10" d="M1452.77,430.3h-99.5l-66,155.55a111,111,0,0,0,51.48,12.67c65.92,0,119.35-58.14,119.35-129.85A140.06,140.06,0,0,0,1452.77,430.3Z"/><polygon class="cls-11" points="1516.01 430.3 1542.85 623.15 1434.15 623.15 1516.01 430.3"/><path class="cls-11" d="M1463.83,505.9h-115a3.13,3.13,0,0,1-2.88-4.36h0a3.13,3.13,0,0,1,2.88-1.9h115a3.13,3.13,0,0,1,2.88,4.35h0A3.13,3.13,0,0,1,1463.83,505.9Z"/><path class="cls-11" d="M1455,526.72H1340a3.12,3.12,0,0,1-2.88-4.35h0a3.14,3.14,0,0,1,2.88-1.91h115a3.14,3.14,0,0,1,2.88,4.36h0A3.14,3.14,0,0,1,1455,526.72Z"/><path class="cls-11" d="M1446.15,547.55h-115a3.12,3.12,0,0,1-2.88-4.35h0a3.12,3.12,0,0,1,2.88-1.91h115a3.13,3.13,0,0,1,2.88,4.35h0A3.13,3.13,0,0,1,1446.15,547.55Z"/><path class="cls-11" d="M1395.57,565.18h-71.94a3.13,3.13,0,0,1-2.88-4.35h0a3.13,3.13,0,0,1,2.88-1.91h71.94a3.13,3.13,0,0,1,2.88,4.35h0A3.13,3.13,0,0,1,1395.57,565.18Z"/><path class="cls-11" d="M1421.11,606.54h-71.93a3.13,3.13,0,0,1-2.89-4.35h0a3.13,3.13,0,0,1,2.89-1.91h71.93a3.13,3.13,0,0,1,2.88,4.35h0A3.13,3.13,0,0,1,1421.11,606.54Z"/><path class="cls-11" d="M1379,452.17l-12.6,29.69h-6.88l12.61-29.69Z"/><polygon class="cls-11" points="1387.12 452.17 1384.74 457.76 1387.36 457.76 1397.2 457.76 1376.33 481.86 1383.8 481.86 1405.54 456.62 1407.43 452.17 1387.12 452.17"/><path class="cls-3" d="M212.71,522.17a9.81,9.81,0,0,0-9.79-10.34H95.65a9.82,9.82,0,0,0-9.8,10.34c1.09,20.69,6.73,68.07,34.92,101.37h57C206,590.24,211.62,542.86,212.71,522.17Z"/><path class="cls-12" d="M132.28,511.83S75,441.75,85.84,288.76c88.59,92.63,63.44,223.07,63.44,223.07Z"/><path class="cls-13" d="M85.84,288.76c0,.18,0,.36,0,.54,69.35,87.75,49.88,196.6,44.6,220,1.2,1.67,1.88,2.5,1.88,2.5h17S174.43,381.39,85.84,288.76Z"/><path class="cls-14" d="M191.43,213.48s-81.17,88.81-42.15,298.35h10.81S218.48,354,191.43,213.48Z"/><path class="cls-15" d="M249.36,330.51S181.83,380,160.09,511.83h8.54S256.3,423.25,249.36,330.51Z"/><path class="cls-16" d="M160.09,623.54H177.8a124,124,0,0,0,15.9-24.36c-65.1-5.29-71.57-52.16-71.46-71.29a8.05,8.05,0,0,0-8.07-8.07H86a9.62,9.62,0,0,0-.17,2.35c1.09,20.69,6.73,68.07,34.92,101.37h39.32Z"/><polygon class="cls-5" points="550.8 426.96 610.81 0 1360.14 0 1300.14 426.96 550.8 426.96"/><polygon class="cls-17" points="1290.48 415.73 563.62 415.73 620.47 11.24 1347.33 11.24 1290.48 415.73"/><path class="cls-8" d="M678.36,156.37s3.79,21.61-5,51.2a66.72,66.72,0,0,0,2.79,46.2l.14.32a9,9,0,0,1-3.61,11.52,30.41,30.41,0,0,1-3.39,1.73,12.5,12.5,0,0,0-7.27,8.71l-5.25,23.63-40-7.71-11.07-88.6L639,141.73Z"/><path class="cls-8" d="M596.58,296.57s-13.31,15.87-15.48,47.65l-93.66-5.78,13.36-43.1,60.43-115.81,35.35-3.61S606.65,222.91,596.58,296.57Z"/><path class="cls-18" d="M585.16,268.6c67.32,60.78,175.68,100.21,297.89,100.21,204.21,0,369.76-110.1,369.76-245.92,0-40.2-14.51-78.15-40.23-111.65H621.33Z"/><path class="cls-19" d="M655.22,309.28A16.44,16.44,0,0,1,635,322.55c-17.86-4.53-42.63-15.1-39.83-38.76,4.34-36.6,9.63-97.27-14-95.83s-19.74,29.86-9.15,52-34.19,60.67-71.27,55.37c0,0,2.65-23.35-16.37-49.59-25.91-35.75-32.26-57.31-33.71-77.05s6.74-45.75,32.75-53.93C491.57,90.94,534.1,53,655.89,94.66a67.16,67.16,0,0,0,11.42,2.93c19.53,3,32.85-3,32.85-3s5.35,31.53-10.36,52.51a31.2,31.2,0,0,1-28,12.29c-25-2.48-37.31,10.22-42,28.62-5.3,20.71-13,89.57,6.26,99.68s30.82,12,30.82,12Z"/><rect class="cls-20" x="813.4" y="608.86" width="316.87" height="14.68"/><rect class="cls-21" x="813.4" y="613.99" width="316.87" height="9.54"/><path class="cls-7" d="M812.93,1248.72c33.44-110.63,72.24-320.92,72.24-320.92l-51.62,8s-16.83,122.6-51.58,257.07c-2.24,13.92-4.4,28.59-6.16,42.75C787.49,1244.56,800.58,1248.07,812.93,1248.72Z"/><path class="cls-22" d="M692.1,935.09l-18.69,6.19a10.64,10.64,0,0,0-6.6,13.89l153.52,402.1a10.64,10.64,0,0,0,11.25,6.76h0a10.63,10.63,0,0,0,8.78-13.89L705.54,941.85A10.63,10.63,0,0,0,692.1,935.09Z"/><path class="cls-23" d="M536.26,928l19.31,3.84a10.64,10.64,0,0,1,8.26,13l-102.76,418a10.64,10.64,0,0,1-10.33,8.09h0a10.63,10.63,0,0,1-10.43-12.7l83.44-421.8A10.65,10.65,0,0,1,536.26,928Z"/><path class="cls-24" d="M412.56,932.81l21.28,5.84A11.9,11.9,0,0,1,442,953.8L293.74,1412.55a11.91,11.91,0,0,1-12.18,8.21h0a11.91,11.91,0,0,1-10.64-15l127-464.58A11.92,11.92,0,0,1,412.56,932.81Z"/><path class="cls-25" d="M558.54,342.83l22.56,1.39c2.17-31.78,15.48-47.65,15.48-47.65.75-5.47,1.38-10.79,1.92-16A79,79,0,0,0,558.54,342.83Z"/><path class="cls-26" d="M450.56,342.12s-62,.72-118.3,113.4S278.11,578.8,278.11,578.8s-29.64,116.53,143.72,63.08Z"/><path class="cls-27" d="M442.69,455.5c-7.62-27.72-13.88-46.29-13.88-46.29s-151.8,160.44-90,246.41c20.82,1.38,48.71-2.24,86-13.74Z"/><path class="cls-28" d="M356.82,589.08S355.38,527,375.6,450.4s26-123.59,160.37-114.52,124.63,17.73,143.2,30.73c15,10.5,81.5,122,106.53,164.54a31.12,31.12,0,0,0,28.52,15.29c34.5-1.88,104.91-5.57,114.67-5,13,.72,35.39,34.67,30.34,64.29-109.79,39-164.22,59.95-205.86,47.67-48.59-14.33-83.91-114.76-95-118.46-3,25.07-14.11,144.08,13.37,203,30.34,65-180.62,173.35-314.95,99.68C358.27,680.09,356.82,589.08,356.82,589.08Z"/><path class="cls-29" d="M954.46,573.71c-13.3,8.31-153.84,93.37-212.65,15.66C680.06,507.76,654.39,424,601.05,483.5S543,706.26,544.24,712.88c.86,4.45,26.28,75.79,42.82,122,59-26.31,97.76-66.27,83.55-96.72-27.48-58.89-16.37-177.9-13.37-203,11.08,3.69,46.4,104.13,95,118.46C793.87,665.92,848.29,645,958.09,606,959.93,595.19,958.12,583.83,954.46,573.71Z"/><path class="cls-30" d="M310.59,778.33S290.37,571.75,465.17,571.75c190.86,0,163.24,195,214,268.7,21.27,45.92,57.5,82.3,92.21,100.38S558.22,1039.94,424.72,964C314.93,901.48,310.59,778.33,310.59,778.33Z"/><path class="cls-31" d="M772,940.83c-34.71-18.08-70.94-54.46-92.21-100.38-50.76-73.68-23.14-268.7-214-268.7-59.74,0-96.69,24.12-119.47,55.88,20.4-11.62,46.16-18.77,78.66-18.77,190.86,0,163.24,195,214,268.7,19.55,42.2,51.72,76.33,83.74,95.61C762.12,960.94,784.07,947.1,772,940.83Z"/><path class="cls-32" d="M593.68,931.55h0a22.69,22.69,0,0,0-17.61,27.67l112.41,457.23a11.91,11.91,0,0,0,11.57,9.07h0a11.92,11.92,0,0,0,11.69-14.22L620.36,949.4A22.69,22.69,0,0,0,593.68,931.55Z"/><polygon class="cls-3" points="1457.81 478.84 1434.15 478.84 1444.19 455.18 1467.86 455.18 1457.81 478.84"/><g class="cls-33"><path class="cls-34" d="M655.44,308l1.38-8.29s-11.56-1.93-30.82-12c-16.18-8.49-13.33-58.44-8.87-86.47-6.32,1.09-12.88,3.89-19.65,8.8,3.3,20.68.33,51.66-2.3,73.82-2.72,23,20.63,33.64,38.34,38.37A17.65,17.65,0,0,0,655.44,308Z"/><path class="cls-35" d="M482.15,242.57l2.28,3.18c19,26.24,16.37,49.59,16.37,49.59,37.08,5.3,81.86-33.22,71.27-55.37-.83-1.74-1.62-3.52-2.36-5.32C540.41,255.6,508.84,252.79,482.15,242.57Z"/></g><ellipse class="cls-9" cx="956.38" cy="142.27" rx="38.53" ry="33.48" transform="translate(159.8 690.32) rotate(-42.99)"/><path class="cls-9" d="M1005.21,260.42H870.16a4.76,4.76,0,0,1-4.72-5.44l.62-4.45a4.77,4.77,0,0,1,4.73-4.11h135a4.78,4.78,0,0,1,4.73,5.44l-.63,4.45A4.77,4.77,0,0,1,1005.21,260.42Z"/><path class="cls-3" d="M947.29,312.42H911.5a4.78,4.78,0,0,1-4.73-5.44l.63-4.45a4.76,4.76,0,0,1,4.72-4.11h35.8a4.76,4.76,0,0,1,4.72,5.43l-.62,4.46A4.79,4.79,0,0,1,947.29,312.42Z"/></g></g></svg>